<?xml version="1.0" standalone="no"?>
<!DOCTYPE svg PUBLIC "-//W3C//DTD SVG 20010904//EN"
 "http://www.w3.org/TR/2001/REC-SVG-20010904/DTD/svg10.dtd">
<svg version="1.0" xmlns="http://www.w3.org/2000/svg"
 width="229.000000pt" height="229.000000pt" viewBox="0 0 229.000000 229.000000"
 preserveAspectRatio="xMidYMid meet">
<metadata>
Created by potrace 1.11, written by Peter Selinger 2001-2013
</metadata>
<g transform="translate(0.000000,229.000000) scale(0.100000,-0.100000)"
fill="#000000" stroke="none">
<path d="M516 1919 c-18 -14 -26 -30 -26 -50 0 -16 -7 -41 -16 -54 -10 -15
-12 -25 -5 -25 6 0 11 -13 11 -30 0 -27 3 -30 30 -30 37 0 39 -20 10 -100 -16
-41 -35 -68 -77 -106 l-56 -50 -52 50 c-28 28 -66 63 -85 79 -31 25 -32 30
-26 73 12 88 -37 116 -75 43 -21 -42 -21 -42 -1 -68 11 -15 34 -55 51 -89 34
-68 144 -192 170 -192 9 0 25 6 36 13 11 8 46 26 78 40 l57 26 16 -32 c9 -18
39 -56 67 -84 l51 -53 -35 -12 c-65 -23 -207 -98 -238 -127 -35 -33 -42 -81
-15 -103 31 -25 143 -144 222 -237 86 -100 132 -179 132 -224 0 -22 4 -28 18
-25 13 2 20 22 31 92 14 89 14 89 -9 108 -12 10 -31 18 -42 18 -13 0 -25 14
-39 48 -56 135 -122 222 -169 222 -25 0 -26 17 -2 24 9 2 48 7 87 11 38 4 79
11 92 16 23 8 23 8 23 -69 0 -94 12 -139 44 -167 13 -11 78 -89 145 -173 l121
-153 0 -65 c0 -54 -4 -69 -23 -88 -13 -13 -29 -25 -37 -28 -24 -8 0 -28 33
-28 36 0 77 24 77 44 0 7 11 29 24 49 40 58 41 74 8 105 -35 33 -52 66 -82
157 -40 124 -81 181 -157 219 -26 13 -33 23 -33 46 0 16 4 31 8 34 5 3 47 -29
93 -70 146 -132 419 -334 449 -334 16 0 198 131 304 218 174 145 323 308 377
415 l19 37 -173 0 -173 0 -143 -166 c-89 -103 -149 -164 -158 -162 -39 8 -38
32 6 220 23 101 45 192 48 203 3 12 -28 -12 -74 -57 l-78 -78 -217 0 c-127 0
-219 4 -223 10 -3 5 -3 21 1 35 l6 25 197 0 196 1 125 119 c69 66 132 120 141
120 41 0 40 -22 -5 -216 -24 -104 -43 -190 -42 -192 2 -1 45 47 96 108 l93
110 198 0 198 0 7 36 c10 55 -2 163 -25 224 -76 199 -253 301 -453 259 -71
-15 -163 -59 -215 -104 l-42 -36 -47 36 c-102 78 -205 110 -325 102 -89 -6
-143 -27 -218 -87 -53 -42 -54 -42 -93 -29 -21 7 -47 18 -56 25 -16 12 -16 14
1 42 23 40 22 93 -4 126 -27 34 -93 37 -133 5z"/>
</g>
</svg>
